<svg width="60" height="56" viewBox="0 0 60 56" fill="none" xmlns="http://www.w3.org/2000/svg">
<g filter="url(#filter0_d_228_207)">
<path d="M30.9188 10.3917C27.025 10.3852 22.1469 11.6156 17.3344 14.1203C12.5295 16.625 8.7211 19.9063 6.48547 23.1109C4.24875 26.3047 3.64391 29.2797 4.74422 31.4016C5.84563 33.5125 8.63031 34.7266 12.5339 34.7266C16.4375 34.7375 21.3156 33.5016 26.1172 31.0078C30.9297 28.5031 34.7359 25.2109 36.9672 22.0172C39.2094 18.8234 39.8 15.8484 38.7063 13.7266C37.6016 11.6156 34.8234 10.3917 30.9188 10.3917ZM40.9703 18.0797C40.5875 19.7531 39.7563 21.4703 38.5859 23.1438C36.1141 26.6766 32.0781 30.1219 27.025 32.7469C21.9719 35.3828 16.8422 36.7063 12.5328 36.7063C10.4984 36.7063 8.61281 36.4 7.0236 35.7547L8.18188 37.9859C9.28438 40.1078 12.0614 41.3219 15.9672 41.3219C19.8719 41.3219 24.75 40.0969 29.5516 37.5922C34.3641 35.0984 38.1703 31.8062 40.4016 28.6016C42.6328 25.4078 43.2453 22.4328 42.1406 20.3219L40.9703 18.0797ZM44.1203 19.9172C45.3453 22.8375 44.3609 26.3922 42.0203 29.7281C39.9531 32.6922 36.7922 35.5688 32.8766 37.975C34.0906 38.1063 35.3594 38.1719 36.65 38.1719C42.0641 38.1719 46.9641 37.0125 50.4203 35.2078C53.8875 33.4031 55.7906 31.0406 55.7906 28.6562C55.7906 26.2719 53.8875 23.9094 50.4203 22.1047C48.6594 21.1859 46.5156 20.4313 44.1203 19.9172ZM55.7906 33.5672C54.675 34.8687 53.1438 36.0172 51.3391 36.9578C47.5109 38.9484 42.3484 40.1406 36.65 40.1406C34.3313 40.1406 32.1 39.9437 30.0109 39.5719C27.4734 40.8516 24.925 41.8031 22.475 42.4266C22.6063 42.5031 22.7375 42.5687 22.8797 42.6453C26.3359 44.45 31.2359 45.6094 36.65 45.6094C42.0641 45.6094 46.9641 44.45 50.4203 42.6453C53.8875 40.8406 55.7906 38.4781 55.7906 36.0938V33.5672Z" fill="#FFE2B2"/>
</g>
<defs>
<filter id="filter0_d_228_207" x="-2" y="-4" width="64" height="64" filterUnits="userSpaceOnUse" color-interpolation-filters="sRGB">
<feFlood flood-opacity="0" result="BackgroundImageFix"/>
<feColorMatrix in="SourceAlpha" type="matrix" values="0 0 0 0 0 0 0 0 0 0 0 0 0 0 0 0 0 0 127 0" result="hardAlpha"/>
<feOffset/>
<feGaussianBlur stdDeviation="2"/>
<feComposite in2="hardAlpha" operator="out"/>
<feColorMatrix type="matrix" values="0 0 0 0 0 0 0 0 0 0 0 0 0 0 0 0 0 0 0.25 0"/>
<feBlend mode="normal" in2="BackgroundImageFix" result="effect1_dropShadow_228_207"/>
<feBlend mode="normal" in="SourceGraphic" in2="effect1_dropShadow_228_207" result="shape"/>
</filter>
</defs>
</svg>
