<svg width="50" height="50" viewBox="0 0 50 50" fill="none" xmlns="http://www.w3.org/2000/svg">
<path d="M43.4899 22.4465H19.9519V16.2895C19.9519 13.2769 22.4699 10.8296 25.5656 10.8296C28.6595 10.8296 31.1775 13.2769 31.1787 16.2895C31.1787 16.8976 31.6861 17.3911 32.3109 17.3911H38.1199C38.7459 17.3911 39.2516 16.8976 39.2516 16.2895C39.2521 16.2003 39.2413 16.1115 39.2193 16.0251C39.0736 8.81857 33.005 3 25.5656 3C18.0358 3 11.9101 8.96205 11.9101 16.2895V22.4465H6.50953C5.675 22.4465 5 23.1032 5 23.9155V45.531C5 46.3428 5.675 47 6.50953 47H43.4905C44.325 47 45 46.3428 45 45.531V23.9149C44.9994 23.1032 44.3244 22.4465 43.4899 22.4465Z" fill="#FDF1D3"/>
</svg>
